<svg width="512" height="512" viewBox="0 0 512 512" fill="none" xmlns="http://www.w3.org/2000/svg">
<rect width="512" height="512" rx="128" fill="#FCFAF3"/>
<path d="M140 172C140 154.327 154.327 140 172 140H340C357.673 140 372 154.327 372 172V340C372 357.673 357.673 372 340 372H172C154.327 372 140 357.673 140 340V172Z" fill="#8FBE5E"/>
<path d="M160 208C160 190.327 174.327 176 192 176H320C337.673 176 352 190.327 352 208V304C352 321.673 337.673 336 320 336H192C174.327 336 160 321.673 160 304V208Z" fill="#B88A1C"/>
<path d="M196 240C196 231.163 203.163 224 212 224H300C308.837 224 316 231.163 316 240V272C316 280.837 308.837 288 300 288H212C203.163 288 196 280.837 196 272V240Z" fill="#FFFDF8"/>
<path d="M214 196H298V212H214V196Z" fill="#FFFDF8"/>
</svg>
